<?xml version="1.0"?>
<svg xmlns="http://www.w3.org/2000/svg" viewBox="0 0 64 64" width="512" height="512"><g id="Computer_tablet_smartphone" data-name="Computer tablet smartphone"><path d="M47,30H57V7H7V22H25a5.006,5.006,0,0,1,5,5v7H42.1A5.009,5.009,0,0,1,47,30ZM29,20H27V18h2Zm4,0H31V18h2Zm4,0H35V18h2Z"/><rect x="30" y="36" width="12" height="6"/><path d="M60,35a2.985,2.985,0,0,0-2.239-2.9l-.014,0-.035-.007A2.642,2.642,0,0,0,57,32H56v1a2,2,0,0,1-2,2H50a2,2,0,0,1-2-2V32H47a3,3,0,0,0-3,3V57a3,3,0,0,0,3,3H57a3,3,0,0,0,3-3ZM49,58H47V56h2Zm4,0H51V56h2Zm4,0H55V56h2Z"/><polygon points="30 54 40.5 54 36.333 44 30 44 30 54"/><path d="M28,27a3,3,0,0,0-3-3H22v1a3,3,0,0,1-3,3H13a3,3,0,0,1-3-3V24H7a2.634,2.634,0,0,0-.729.093A2.994,2.994,0,0,0,4,27V57a3,3,0,0,0,3,3H25a3,3,0,0,0,3-3ZM13,58H11V56h2Zm4,0H15V56h2Zm4,0H19V56h2Z"/><path d="M19,26a1,1,0,0,0,1-1V24H12v1a1,1,0,0,0,1,1Z"/><rect x="50" y="32" width="4.001" height="1"/><path d="M60,5a1,1,0,0,0-1-1H5A1,1,0,0,0,4,5V23c.034-.026.8-.481.889-.524.037-.017.073-.036.111-.052V5H59V30.432a4.944,4.944,0,0,1,1,.562Z"/></g></svg>
