<svg id="Time" height="512" viewBox="0 0 64 64" width="512" xmlns="http://www.w3.org/2000/svg"><path d="m30 56c.66 0 1.33-.036 2-.089v-2.011c-.671.057-1.34.1-2 .1a24 24 0 1 1 24-24c0 .66-.039 1.329-.1 2h2.007c.053-.67.089-1.34.089-2a26 26 0 1 0 -25.996 26z"/><path d="m46.445 46.168a1 1 0 0 1 1.11 0l1.445.964v-7.132h-4v7.132z"/><path d="m37.535 34-2.667 4h24.264l-2.667-4z"/><path d="m51 40h9v3h-9z"/><path d="m34 40h9v3h-9z"/><path d="m35 60h24a1 1 0 0 0 1-1v-14h-9v4a1 1 0 0 1 -1.555.832l-2.445-1.632-2.445 1.63a1 1 0 0 1 -1.555-.83v-4h-9v14a1 1 0 0 0 1 1z"/><path d="m29 29h2v2h-2z" transform="matrix(.707 -.707 .707 .707 -12.426 30)"/><path d="m32 39a1.006 1.006 0 0 1 .168-.555l4-6a1 1 0 0 1 .832-.445h14.9c.062-.671.1-1.341.1-2a22 22 0 1 0 -22 22c.659 0 1.329-.043 2-.1zm16-10h2v2h-2zm-4.564-13.85 1.414 1.414-1.415 1.415-1.414-1.414zm-31.436 15.85h-2v-2h2zm17-21h2v2h-2zm-12.436 5.15 1.415 1.415-1.414 1.414-1.415-1.415zm0 29.7-1.414-1.414 1.415-1.415 1.414 1.414zm.436-13.85v-2h9.758l2.242-2.242v-11.758h2v11.758l2.535 2.535a1 1 0 0 1 0 1.414l-2.828 2.828a1 1 0 0 1 -1.414 0l-2.535-2.535zm14 19h-2v-2h2z"/></svg>